<?xml version="1.0" encoding="utf-8"?>
<!-- Generator: Adobe Illustrator 16.0.0, SVG Export Plug-In . SVG Version: 6.00 Build 0)  -->
<!DOCTYPE svg PUBLIC "-//W3C//DTD SVG 1.1//EN" "http://www.w3.org/Graphics/SVG/1.1/DTD/svg11.dtd">
<svg version="1.1" id="Layer_1" xmlns="http://www.w3.org/2000/svg" xmlns:xlink="http://www.w3.org/1999/xlink" x="0px" y="0px"
	 width="48px" height="48px" viewBox="0 0 48 48" enable-background="new 0 0 48 48" xml:space="preserve">
<g>
	<path d="M40.06,25.523c0-2.289-1.855-4.142-4.144-4.142h-7.334V14.02c0-2.289-1.868-4.145-4.156-4.145S20.27,11.73,20.27,14.02
		v7.362h-7.371c-2.289,0-4.146,1.867-4.146,4.156s1.856,4.156,4.146,4.156h7.371v7.329c0,2.289,1.867,4.145,4.156,4.145
		s4.156-1.855,4.156-4.145v-7.358l7.338,0.003C38.208,29.668,40.06,27.813,40.06,25.523z"/>
	<path d="M3.448,15.898c1.372,0,2.487-1.111,2.487-2.483V5.936h7.43c1.372,0,2.483-1.083,2.483-2.455
		c0-1.371-1.111-2.454-2.483-2.454H3.434c-1.372,0-2.473,1.086-2.473,2.458v9.931C0.961,14.787,2.077,15.898,3.448,15.898z"/>
	<path d="M44.552,32.087c-1.372,0-2.487,1.112-2.487,2.483v7.429h-7.422c-1.372,0-2.483,1.116-2.483,2.487s1.111,2.487,2.483,2.487
		h9.931c1.372,0,2.466-1.101,2.466-2.472V34.57C47.039,33.199,45.923,32.087,44.552,32.087z"/>
	<path d="M13.426,42.064H6.001v-7.434c0-1.371-1.116-2.482-2.487-2.482c-1.372,0-2.487,1.111-2.487,2.482v9.932
		c0,1.372,1.097,2.477,2.468,2.477h9.931c1.372,0,2.483-1.116,2.483-2.487S14.797,42.064,13.426,42.064z"/>
	<path d="M34.581,5.936h7.418v7.419c0,1.371,1.116,2.482,2.487,2.482c1.372,0,2.487-1.111,2.487-2.482V3.423
		c0-1.371-1.089-2.462-2.461-2.462h-9.932c-1.371,0-2.482,1.116-2.482,2.487S33.21,5.936,34.581,5.936z"/>
</g>
</svg>
