<?xml version="1.0" encoding="utf-8"?>
<!-- Generator: Adobe Illustrator 16.0.0, SVG Export Plug-In . SVG Version: 6.00 Build 0)  -->
<!DOCTYPE svg PUBLIC "-//W3C//DTD SVG 1.1//EN" "http://www.w3.org/Graphics/SVG/1.1/DTD/svg11.dtd">
<svg version="1.1" id="Layer_1" xmlns="http://www.w3.org/2000/svg" xmlns:xlink="http://www.w3.org/1999/xlink" x="0px" y="0px"
	 width="48px" height="48px" viewBox="0 0 48 48" enable-background="new 0 0 48 48" xml:space="preserve">
<g>
	<path d="M12.346,4.152H6.208c-2.842,0-5.146,2.305-5.146,5.146v30.354c0,2.843,2.305,5.146,5.146,5.146h6.138
		c2.843,0,5.147-2.304,5.147-5.146V9.299C17.493,6.457,15.188,4.152,12.346,4.152z M5.386,13.229c0-1.729,1.401-3.131,3.13-3.131
		h1.469c1.729,0,3.131,1.401,3.131,3.131v11.144c0,1.729-1.402,3.131-3.131,3.131H8.516c-1.729,0-3.13-1.401-3.13-3.131V13.229z
		 M9.27,38.821c-2.137,0-3.869-1.732-3.869-3.87c0-2.137,1.732-3.869,3.869-3.869c2.138,0,3.87,1.732,3.87,3.869
		C13.14,37.089,11.407,38.821,9.27,38.821z"/>
	<path d="M46.632,35.496L35.339,7.313c-1.057-2.639-4.053-3.921-6.691-2.863l-5.721,2.292c-2.639,1.057-3.921,4.053-2.863,6.691
		l11.293,28.185c1.057,2.639,4.053,3.921,6.691,2.863l5.721-2.292C46.407,41.131,47.688,38.136,46.632,35.496z M29.73,25.847
		l-4.152-10.362c-0.643-1.605,0.137-3.428,1.741-4.07l1.377-0.552c1.604-0.643,3.427,0.137,4.07,1.741l4.152,10.362
		c0.643,1.605-0.137,3.428-1.742,4.07L33.8,27.588C32.195,28.231,30.373,27.451,29.73,25.847z M38.686,37.792
		c-1.984,0.795-4.237-0.169-5.032-2.152c-0.795-1.984,0.169-4.237,2.153-5.031c1.983-0.795,4.236,0.169,5.031,2.152
		C41.633,34.745,40.669,36.997,38.686,37.792z"/>
</g>
</svg>
