<?xml version="1.0" encoding="utf-8"?>
<!-- Generator: Adobe Illustrator 16.0.0, SVG Export Plug-In . SVG Version: 6.00 Build 0)  -->
<!DOCTYPE svg PUBLIC "-//W3C//DTD SVG 1.1//EN" "http://www.w3.org/Graphics/SVG/1.1/DTD/svg11.dtd">
<svg version="1.1" id="Layer_1" xmlns="http://www.w3.org/2000/svg" xmlns:xlink="http://www.w3.org/1999/xlink" x="0px" y="0px"
	 width="48px" height="48px" viewBox="0 0 48 48" enable-background="new 0 0 48 48" xml:space="preserve">
<path d="M42.276,10.946h-3.503V8.351c0-4.105-3.317-7.418-7.422-7.418H16.443c-4.105,0-7.479,3.313-7.479,7.418v2.596H5.517
	c-2.466,0-4.453,2.016-4.453,4.482v26.704c0,2.466,1.987,4.491,4.453,4.491h36.76c2.468,0,4.478-2.025,4.478-4.491V15.428
	C46.754,12.962,44.744,10.946,42.276,10.946z M14.989,8.351c0-0.818,0.635-1.472,1.454-1.472h14.908
	c0.818,0,1.477,0.654,1.477,1.472v2.596H14.989V8.351z"/>
</svg>
