<?xml version="1.0" encoding="utf-8"?>
<!-- Generator: Adobe Illustrator 16.0.0, SVG Export Plug-In . SVG Version: 6.00 Build 0)  -->
<!DOCTYPE svg PUBLIC "-//W3C//DTD SVG 1.1//EN" "http://www.w3.org/Graphics/SVG/1.1/DTD/svg11.dtd">
<svg version="1.1" id="Layer_1" xmlns="http://www.w3.org/2000/svg" xmlns:xlink="http://www.w3.org/1999/xlink" x="0px" y="0px"
	 width="48px" height="48px" viewBox="0 0 48 48" enable-background="new 0 0 48 48" xml:space="preserve">
<path d="M34.959,0.943H13.063c-4.297,0-7.784,3.462-7.784,7.759v30.717c0,4.297,3.487,7.762,7.784,7.762h21.896
	c4.297,0,7.762-3.465,7.762-7.762V8.702C42.721,4.405,39.256,0.943,34.959,0.943z M17.997,38.189c0,0.941-0.792,1.681-1.732,1.681
	h-3.628c-0.94,0-1.711-0.739-1.711-1.681v-3.627c0-0.941,0.771-1.705,1.711-1.705h3.628c0.94,0,1.732,0.764,1.732,1.705V38.189z
	 M17.997,28.81c0,0.94-0.792,1.73-1.732,1.73h-3.628c-0.94,0-1.711-0.79-1.711-1.73v-3.628c0-0.94,0.771-1.714,1.711-1.714h3.628
	c0.94,0,1.732,0.773,1.732,1.714V28.81z M27.744,38.189c0,0.941-0.773,1.681-1.714,1.681h-3.628c-0.941,0-1.73-0.739-1.73-1.681
	v-3.627c0-0.941,0.789-1.705,1.73-1.705h3.628c0.94,0,1.714,0.764,1.714,1.705V38.189z M27.744,28.81c0,0.94-0.773,1.73-1.714,1.73
	h-3.628c-0.941,0-1.73-0.79-1.73-1.73v-3.628c0-0.94,0.789-1.714,1.73-1.714h3.628c0.94,0,1.714,0.773,1.714,1.714V28.81z
	 M37.074,38.189c0,0.941-0.782,1.681-1.724,1.681h-3.627c-0.941,0-1.721-0.739-1.721-1.681v-3.627c0-0.941,0.779-1.705,1.721-1.705
	h3.627c0.941,0,1.724,0.764,1.724,1.705V38.189z M37.074,28.81c0,0.94-0.782,1.73-1.724,1.73h-3.627c-0.941,0-1.721-0.79-1.721-1.73
	v-3.628c0-0.94,0.779-1.714,1.721-1.714h3.627c0.941,0,1.724,0.773,1.724,1.714V28.81z M37.074,15.557
	c0,1.919-1.539,3.454-3.458,3.454h-19.21c-1.918,0-3.48-1.535-3.48-3.454v-3.113c0-1.918,1.563-3.477,3.48-3.477h19.21
	c1.919,0,3.458,1.559,3.458,3.477V15.557z"/>
</svg>
