<?xml version="1.0" encoding="utf-8"?>
<!-- Generator: Adobe Illustrator 16.0.0, SVG Export Plug-In . SVG Version: 6.00 Build 0)  -->
<!DOCTYPE svg PUBLIC "-//W3C//DTD SVG 1.1//EN" "http://www.w3.org/Graphics/SVG/1.1/DTD/svg11.dtd">
<svg version="1.1" id="Layer_1" xmlns="http://www.w3.org/2000/svg" xmlns:xlink="http://www.w3.org/1999/xlink" x="0px" y="0px"
	 width="48px" height="48px" viewBox="0 0 48 48" enable-background="new 0 0 48 48" xml:space="preserve">
<path d="M43.703,17.787l-10.755,2.48c-0.348-1.882-1.708-3.41-3.493-4.001c0.52-1.002,0.812-2.14,0.812-3.347
	c0-4.025-3.264-7.288-7.288-7.288c-2.559,0-4.81,1.318-6.109,3.313c-1.301-1.995-3.551-3.313-6.109-3.313
	c-4.025,0-7.288,3.263-7.288,7.288c0,1.256,0.305,2.438,0.865,3.471c-1.904,0.778-3.259,2.648-3.259,4.832V33.62
	c0,2.882,2.362,5.221,5.245,5.221h21.489c2.841,0,5.151-2.271,5.217-5.097l10.674,2.46c1.61,0.372,3.157-0.852,3.157-2.504V20.291
	C46.86,18.638,45.313,17.415,43.703,17.787z M24.597,29.151c0,1.224-0.991,2.216-2.215,2.216H11.813
	c-1.224,0-2.215-0.992-2.215-2.216v-3.513c0-1.224,0.991-2.216,2.215-2.216h10.569c1.224,0,2.215,0.992,2.215,2.216V29.151z"/>
</svg>
