<?xml version="1.0" encoding="utf-8"?>
<!-- Generator: Adobe Illustrator 16.0.0, SVG Export Plug-In . SVG Version: 6.00 Build 0)  -->
<!DOCTYPE svg PUBLIC "-//W3C//DTD SVG 1.1//EN" "http://www.w3.org/Graphics/SVG/1.1/DTD/svg11.dtd">
<svg version="1.1" id="Layer_1" xmlns="http://www.w3.org/2000/svg" xmlns:xlink="http://www.w3.org/1999/xlink" x="0px" y="0px"
	 width="48px" height="48px" viewBox="0 0 48 48" enable-background="new 0 0 48 48" xml:space="preserve">
<g>
	<path d="M7.143,40.339c7.98,8.378,20.751,9.425,29.938,2.962c0.296-0.208,0.486-0.535,0.521-0.895s-0.086-0.718-0.335-0.98
		L7.52,10.197c-0.25-0.262-0.601-0.402-0.962-0.384s-0.697,0.193-0.919,0.479C-1.264,19.154-0.837,31.961,7.143,40.339z"/>
	<path d="M29.017,26.965c0.519,0.545,1.277,0.791,2.017,0.656c0.74-0.136,1.361-0.635,1.653-1.328l7.104-16.877
		c0.297-0.707,0.117-1.525-0.45-2.041c-0.916-0.833-1.883-1.579-2.892-2.238C36,4.843,35.442,4.764,34.929,4.921
		s-0.93,0.535-1.139,1.03l-7.031,16.704c-0.344,0.817-0.171,1.761,0.44,2.403L29.017,26.965z"/>
	<path d="M43.98,13.222c-0.154-0.276-0.453-0.441-0.769-0.423c-0.316,0.017-0.595,0.213-0.718,0.505l-7.552,17.942
		c-0.344,0.817-0.171,1.761,0.44,2.403l5.109,5.364c0.164,0.172,0.395,0.266,0.632,0.256c0.238-0.009,0.46-0.121,0.61-0.305
		C47.729,31.599,48.516,21.356,43.98,13.222z"/>
	<path d="M30.11,4.385c0.208-0.495,0.186-1.058-0.062-1.535s-0.694-0.819-1.219-0.935c-5.958-1.313-12.343-0.238-17.636,3.246
		c-0.448,0.295-0.742,0.773-0.803,1.306s0.116,1.066,0.486,1.455l9.958,10.454c0.519,0.545,1.277,0.791,2.017,0.655
		c0.74-0.135,1.361-0.635,1.653-1.328L30.11,4.385z"/>
</g>
</svg>
