<?xml version="1.0" encoding="utf-8"?>
<!-- Generator: Adobe Illustrator 16.0.0, SVG Export Plug-In . SVG Version: 6.00 Build 0)  -->
<!DOCTYPE svg PUBLIC "-//W3C//DTD SVG 1.1//EN" "http://www.w3.org/Graphics/SVG/1.1/DTD/svg11.dtd">
<svg version="1.1" id="Layer_1" xmlns="http://www.w3.org/2000/svg" xmlns:xlink="http://www.w3.org/1999/xlink" x="0px" y="0px"
	 width="48px" height="48px" viewBox="0 0 48 48" enable-background="new 0 0 48 48" xml:space="preserve">
<path d="M43.933,33.789l-16.964-8.371v-0.023l0,0v-1.162c3.022-1.212,6.862-4.592,6.862-8.959c0-5.242-4.096-9.347-9.323-9.347
	c-2.749,0-5.205,1.123-6.919,3.014c-0.759,0.836-1.02,2.011-0.686,3.09c0.334,1.078,1.211,1.902,2.31,2.163L19.24,14.2
	c1.063,0.252,2.178-0.099,2.904-0.913c0.648-0.725,1.553-1.149,2.55-1.149c1.878,0,3.058,1.279,3.058,3.338
	c0,1.951-1.394,3.188-3.772,3.31l0.033,0.018c-2.002,0.127-2.989,1.676-2.989,3.385v3.245L4.06,33.789
	c-1.778,0.875-2.711,2.83-2.262,4.754c0.448,1.932,2.141,3.274,4.124,3.274h36.119c1.983,0,3.69-1.343,4.139-3.274
	C46.629,36.618,45.712,34.664,43.933,33.789z M13.318,35.872l10.662-5.255l10.664,5.255H13.318z"/>
</svg>
