<?xml version="1.0" encoding="utf-8"?>
<!-- Generator: Adobe Illustrator 16.0.0, SVG Export Plug-In . SVG Version: 6.00 Build 0)  -->
<!DOCTYPE svg PUBLIC "-//W3C//DTD SVG 1.1//EN" "http://www.w3.org/Graphics/SVG/1.1/DTD/svg11.dtd">
<svg version="1.1" id="Layer_1" xmlns="http://www.w3.org/2000/svg" xmlns:xlink="http://www.w3.org/1999/xlink" x="0px" y="0px"
	 width="48px" height="48px" viewBox="0 0 48 48" enable-background="new 0 0 48 48" xml:space="preserve">
<path d="M40.066,9.925h-3.122c-0.193-0.858-0.6-1.635-1.196-2.295c-0.976-1.083-2.365-1.692-3.823-1.692H6.114
	c-1.457,0-2.847,0.612-3.823,1.695c-0.977,1.082-1.448,2.525-1.298,3.975l2.802,27.067c0.271,2.625,2.482,4.606,5.121,4.606h20.208
	c2.638,0,4.85-1.977,5.121-4.601l0.053-0.496h5.768c3.926,0,7.139-3.207,7.139-7.133V17.051
	C47.205,13.125,43.992,9.925,40.066,9.925z M42.108,31.052c0,1.115-0.928,2.036-2.042,2.036h-5.24l1.866-18.066h3.374
	c1.115,0,2.042,0.914,2.042,2.029V31.052z"/>
</svg>
