<?xml version="1.0" encoding="utf-8"?>
<!-- Generator: Adobe Illustrator 16.0.0, SVG Export Plug-In . SVG Version: 6.00 Build 0)  -->
<!DOCTYPE svg PUBLIC "-//W3C//DTD SVG 1.1//EN" "http://www.w3.org/Graphics/SVG/1.1/DTD/svg11.dtd">
<svg version="1.1" id="Layer_1" xmlns="http://www.w3.org/2000/svg" xmlns:xlink="http://www.w3.org/1999/xlink" x="0px" y="0px"
	 width="48px" height="48px" viewBox="0 0 48 48" enable-background="new 0 0 48 48" xml:space="preserve">
<path d="M23.774,1.226C11.196,1.226,1,11.411,1,23.975c0,12.564,10.196,22.75,22.774,22.75s22.774-10.185,22.774-22.75
	C46.549,11.411,36.353,1.226,23.774,1.226z M39.453,11.894c0.225,0.29,0.318,0.661,0.259,1.023c-0.06,0.362-0.267,0.685-0.574,0.888
	l-6.927,4.585c-0.552,0.366-1.291,0.266-1.726-0.234c-1.394-1.605-3.352-2.708-5.562-2.995c-0.659-0.085-1.149-0.645-1.149-1.31
	V5.555c0-0.367,0.152-0.717,0.421-0.967c0.269-0.25,0.629-0.376,0.995-0.351C30.984,4.648,36.097,7.56,39.453,11.894z M17.85,23.975
	c0-3.272,2.652-5.925,5.925-5.925s5.925,2.652,5.925,5.925c0,3.273-2.652,5.925-5.925,5.925S17.85,27.248,17.85,23.975z
	 M17.796,42.84c-0.35-0.111-0.638-0.362-0.795-0.694c-0.157-0.332-0.169-0.713-0.033-1.054l3.066-7.71
	c0.245-0.616,0.909-0.956,1.551-0.792c0.19,0.048,0.383,0.091,0.578,0.126c0.653,0.121,1.113,0.705,1.079,1.369l-0.438,8.285
	c-0.019,0.366-0.19,0.708-0.471,0.943s-0.647,0.343-1.011,0.298C20.109,43.46,18.931,43.2,17.796,42.84z"/>
</svg>
