<?xml version="1.0" encoding="utf-8"?>
<!-- Generator: Adobe Illustrator 16.0.0, SVG Export Plug-In . SVG Version: 6.00 Build 0)  -->
<!DOCTYPE svg PUBLIC "-//W3C//DTD SVG 1.1//EN" "http://www.w3.org/Graphics/SVG/1.1/DTD/svg11.dtd">
<svg version="1.1" id="Layer_1" xmlns="http://www.w3.org/2000/svg" xmlns:xlink="http://www.w3.org/1999/xlink" x="0px" y="0px"
	 width="48px" height="48px" viewBox="0 0 48 48" enable-background="new 0 0 48 48" xml:space="preserve">
<g>
	<path d="M7.28,41.606h33.44c2.676,0,4.945-1.751,5.743-4.155c0.137-0.415,0.067-0.87-0.188-1.224
		c-0.256-0.354-0.666-0.563-1.102-0.563H2.827c-0.437,0-0.846,0.209-1.102,0.563s-0.326,0.809-0.188,1.224
		C2.334,39.854,4.604,41.606,7.28,41.606z"/>
	<path d="M46.787,13.981c0-3.341-2.726-6.064-6.066-6.064H7.28c-3.341,0-6.066,2.723-6.066,6.064v9.272
		c0,1.375,1.115,2.49,2.49,2.49h40.594c1.375,0,2.49-1.115,2.49-2.49V13.981z"/>
</g>
</svg>
