<?xml version="1.0" encoding="utf-8"?>
<!-- Generator: Adobe Illustrator 16.0.0, SVG Export Plug-In . SVG Version: 6.00 Build 0)  -->
<!DOCTYPE svg PUBLIC "-//W3C//DTD SVG 1.1//EN" "http://www.w3.org/Graphics/SVG/1.1/DTD/svg11.dtd">
<svg version="1.1" id="Layer_1" xmlns="http://www.w3.org/2000/svg" xmlns:xlink="http://www.w3.org/1999/xlink" x="0px" y="0px"
	 width="48px" height="48px" viewBox="0 0 48 48" enable-background="new 0 0 48 48" xml:space="preserve">
<g>
	<path d="M29.776,34.859c-7.691-0.976-13.836-7.248-14.674-14.956c-0.771-7.092,2.827-13.418,8.436-16.642
		c1.09-0.626,0.639-2.296-0.617-2.236c-1.406,0.067-2.841,0.269-4.297,0.622C8.926,4.006,1.707,12.483,1.051,22.443
		C0.169,35.851,10.782,47,24,47c10.078,0,18.639-6.482,21.748-15.504c0.414-1.203-1.063-2.112-1.98-1.231
		C40.225,33.667,35.213,35.55,29.776,34.859z"/>
</g>
</svg>
