<?xml version="1.0" encoding="utf-8"?>
<!-- Generator: Adobe Illustrator 16.0.0, SVG Export Plug-In . SVG Version: 6.00 Build 0)  -->
<!DOCTYPE svg PUBLIC "-//W3C//DTD SVG 1.1//EN" "http://www.w3.org/Graphics/SVG/1.1/DTD/svg11.dtd">
<svg version="1.1" id="Layer_1" xmlns="http://www.w3.org/2000/svg" xmlns:xlink="http://www.w3.org/1999/xlink" x="0px" y="0px"
	 width="48px" height="48px" viewBox="0 0 48 48" enable-background="new 0 0 48 48" xml:space="preserve">
<g>
	<path d="M24.239,1.316c-12.543,0-22.746,10.204-22.746,22.746s10.203,22.746,22.746,22.746s22.746-10.204,22.746-22.746
		S36.782,1.316,24.239,1.316z M27.012,38.827v-1.369c0-1.524-1.229-2.759-2.752-2.759c-1.524,0-2.752,1.235-2.752,2.759v1.369
		c-6.115-1.133-10.9-5.92-12.033-12.035h1.105c1.525,0,2.76-1.227,2.76-2.751s-1.234-2.751-2.76-2.751H9.475
		c1.133-6.038,5.918-10.859,12.033-11.992v1.369c0,1.524,1.228,2.759,2.752,2.759c1.523,0,2.752-1.235,2.752-2.759V9.298
		c6.037,1.133,10.859,5.954,11.992,11.992h-1.105c-1.525,0-2.76,1.227-2.76,2.751s1.234,2.751,2.76,2.751h1.105
		C37.871,32.907,33.049,37.694,27.012,38.827z"/>
	<circle cx="24.239" cy="24.063" r="4.446"/>
</g>
</svg>
