<?xml version="1.0" encoding="utf-8"?>
<!-- Generator: Adobe Illustrator 16.0.0, SVG Export Plug-In . SVG Version: 6.00 Build 0)  -->
<!DOCTYPE svg PUBLIC "-//W3C//DTD SVG 1.1//EN" "http://www.w3.org/Graphics/SVG/1.1/DTD/svg11.dtd">
<svg version="1.1" id="Layer_1" xmlns="http://www.w3.org/2000/svg" xmlns:xlink="http://www.w3.org/1999/xlink" x="0px" y="0px"
	 width="48px" height="48px" viewBox="0 0 48 48" enable-background="new 0 0 48 48" xml:space="preserve">
<g>
	<path d="M26.943,20.355c-4.77-1.796-6.734-2.975-6.734-4.826c0-1.57,1.179-3.143,4.826-3.143c2.37,0,4.237,0.444,5.67,0.937
		c0.63,0.217,1.319,0.16,1.904-0.155c0.585-0.315,1.01-0.861,1.175-1.507l0.427-1.69c0.313-1.217-0.377-2.467-1.573-2.856
		c-1.577-0.513-3.467-0.9-6.061-1.012V2.426c0-0.696-0.535-1.356-1.233-1.356H22.37c-0.696,0-1.333,0.66-1.333,1.356v4.069
		c-5.895,1.179-9.448,5.05-9.448,9.988c0,5.443,4.122,8.249,10.125,10.269c4.153,1.404,5.954,2.751,5.954,4.883
		c0,2.243-2.186,3.479-5.384,3.479c-2.513,0-4.864-0.56-6.854-1.329c-0.635-0.245-1.345-0.209-1.951,0.103
		c-0.605,0.313-1.049,0.867-1.218,1.527l-0.484,1.888c-0.301,1.173,0.315,2.385,1.448,2.816c2.09,0.796,4.864,1.38,7.576,1.504v4.07
		c0,0.696,0.591,1.238,1.289,1.238h2.974c0.697,0,1.278-0.542,1.278-1.238V41.23c6.484-1.122,9.98-5.388,9.98-10.382
		C36.323,25.799,33.621,22.713,26.943,20.355z"/>
</g>
</svg>
