<?xml version="1.0" encoding="utf-8"?>
<!-- Generator: Adobe Illustrator 16.0.0, SVG Export Plug-In . SVG Version: 6.00 Build 0)  -->
<!DOCTYPE svg PUBLIC "-//W3C//DTD SVG 1.1//EN" "http://www.w3.org/Graphics/SVG/1.1/DTD/svg11.dtd">
<svg version="1.1" id="Layer_1" xmlns="http://www.w3.org/2000/svg" xmlns:xlink="http://www.w3.org/1999/xlink" x="0px" y="0px"
	 width="48px" height="48px" viewBox="0 0 48 48" enable-background="new 0 0 48 48" xml:space="preserve">
<g>
	<path d="M23.923,17.782c-4.697,0-8.503,3.807-8.503,8.503s3.807,8.504,8.503,8.504c4.696,0,8.503-3.808,8.503-8.504
		S28.62,17.782,23.923,17.782z M24.397,30.073v0.984c0,0.153-0.079,0.233-0.232,0.233h-0.656c-0.154,0-0.29-0.08-0.29-0.233V30.16
		c-0.589-0.027-1.208-0.156-1.668-0.332c-0.25-0.095-0.386-0.362-0.319-0.621l0.108-0.417c0.038-0.146,0.136-0.268,0.27-0.337
		c0.134-0.068,0.291-0.076,0.431-0.022c0.439,0.17,0.958,0.293,1.512,0.293c0.706,0,1.188-0.272,1.188-0.767
		c0-0.471-0.396-0.768-1.312-1.077c-1.325-0.445-2.223-1.064-2.223-2.266c0-1.089,0.75-1.943,2.097-2.203v-0.897
		c0-0.153,0.114-0.322,0.268-0.322h0.656c0.154,0,0.254,0.169,0.254,0.322v0.811c0.589,0.025,0.998,0.11,1.346,0.224
		c0.264,0.086,0.422,0.361,0.353,0.63l-0.093,0.373c-0.037,0.143-0.129,0.263-0.258,0.332c-0.129,0.07-0.281,0.082-0.42,0.034
		c-0.316-0.108-0.728-0.206-1.25-0.206c-0.805,0-1.065,0.347-1.065,0.693c0,0.408,0.434,0.668,1.486,1.064
		c1.473,0.52,2.044,1.2,2.044,2.314C26.623,28.885,25.828,29.826,24.397,30.073z"/>
	<path d="M41.4,12.102H8.665H7.78H6.446C3.434,12.102,1,14.578,1,17.59v17.392c0,3.012,2.434,5.482,5.446,5.482H41.4
		c3.012,0,5.468-2.471,5.468-5.482V17.59C46.868,14.578,44.413,12.102,41.4,12.102z M39.182,29.944c-1.69,0-3.086,1.382-3.086,3.072
		v3.492H11.688v-3.492c0-1.69-1.333-3.072-3.024-3.072H4.872v-7.07h3.793c1.691,0,3.024-1.374,3.024-3.065v-3.751h24.407v3.751
		c0,1.691,1.396,3.065,3.086,3.065h3.731v7.07H39.182z"/>
</g>
</svg>
