<?xml version="1.0" encoding="utf-8"?>
<!-- Generator: Adobe Illustrator 16.0.0, SVG Export Plug-In . SVG Version: 6.00 Build 0)  -->
<!DOCTYPE svg PUBLIC "-//W3C//DTD SVG 1.1//EN" "http://www.w3.org/Graphics/SVG/1.1/DTD/svg11.dtd">
<svg version="1.1" id="Layer_1" xmlns="http://www.w3.org/2000/svg" xmlns:xlink="http://www.w3.org/1999/xlink" x="0px" y="0px"
	 width="48px" height="48px" viewBox="0 0 48 48" enable-background="new 0 0 48 48" xml:space="preserve">
<path d="M24,1C11.298,1,1,11.298,1,24s10.298,23,23,23s23-10.298,23-23S36.702,1,24,1z M42.949,23h-6.303
	c-0.078-3.301-0.539-6.42-1.304-9.217c1.227-0.714,2.178-1.545,2.774-2.454C40.933,14.462,42.715,18.524,42.949,23z M34.81,38.9
	c-0.185,0.368-0.834,0.924-1.921,1.473c0.397-0.713,0.769-1.475,1.111-2.277C34.424,38.402,34.701,38.685,34.81,38.9z M14,38.096
	c0.343,0.803,0.713,1.564,1.111,2.277c-1.087-0.549-1.737-1.104-1.921-1.473C13.299,38.685,13.576,38.402,14,38.096z M13.19,9.1
	c0.184-0.369,0.834-0.924,1.921-1.473C14.713,8.34,14.343,9.102,14,9.903C13.576,9.598,13.299,9.315,13.19,9.1z M34,9.904
	c-0.343-0.803-0.714-1.564-1.111-2.277C33.976,8.176,34.625,8.73,34.81,9.1C34.701,9.315,34.424,9.598,34,9.904z M26,5.902
	c0.155,0.012,0.312,0.022,0.463,0.037c1.439,1.068,2.812,3.011,3.898,5.599c-1.219,0.353-2.677,0.63-4.361,0.758V5.902z
	 M21.537,5.939C21.688,5.925,21.845,5.914,22,5.902v6.394c-1.685-0.128-3.143-0.405-4.361-0.758
	C18.726,8.95,20.098,7.008,21.537,5.939z M22,16.301V23h-6.634c0.072-2.785,0.439-5.37,1.021-7.665
	C18.072,15.831,19.969,16.166,22,16.301z M22,27v4.699c-2.031,0.135-3.928,0.47-5.612,0.966c-0.439-1.735-0.756-3.637-0.917-5.665
	H22z M22,35.704v6.394c-0.155-0.012-0.312-0.022-0.463-0.037c-1.439-1.068-2.812-3.011-3.898-5.6
	C18.857,36.109,20.315,35.832,22,35.704z M26.463,42.061c-0.151,0.015-0.308,0.025-0.463,0.037v-6.394
	c1.685,0.128,3.143,0.405,4.361,0.757C29.274,39.05,27.902,40.992,26.463,42.061z M26,31.699V27h6.529
	c-0.161,2.028-0.478,3.93-0.918,5.665C29.928,32.169,28.031,31.834,26,31.699z M26,23v-6.699c2.031-0.135,3.928-0.47,5.611-0.966
	c0.583,2.295,0.95,4.88,1.022,7.665H26z M9.883,11.329c0.597,0.909,1.548,1.74,2.774,2.454c-0.765,2.797-1.226,5.916-1.304,9.217
	H5.051C5.285,18.524,7.067,14.462,9.883,11.329z M5.261,27h6.189c0.184,2.563,0.599,4.991,1.207,7.217
	c-1.227,0.714-2.178,1.545-2.774,2.454C7.493,34.012,5.849,30.685,5.261,27z M38.117,36.671c-0.597-0.909-1.548-1.74-2.774-2.454
	c0.608-2.226,1.022-4.654,1.207-7.217h6.189C42.151,30.685,40.507,34.012,38.117,36.671z"/>
</svg>
