<?xml version="1.0" encoding="utf-8"?>
<!-- Generator: Adobe Illustrator 16.0.0, SVG Export Plug-In . SVG Version: 6.00 Build 0)  -->
<!DOCTYPE svg PUBLIC "-//W3C//DTD SVG 1.1//EN" "http://www.w3.org/Graphics/SVG/1.1/DTD/svg11.dtd">
<svg version="1.1" id="Layer_1" xmlns="http://www.w3.org/2000/svg" xmlns:xlink="http://www.w3.org/1999/xlink" x="0px" y="0px"
	 width="48px" height="48px" viewBox="0 0 48 48" enable-background="new 0 0 48 48" xml:space="preserve">
<g>
	<path d="M47,11.994C47,10.341,45.659,9,44.006,9H3.994C2.341,9,1,10.341,1,11.994v6.012C1,19.659,2.341,21,3.994,21h40.012
		C45.659,21,47,19.659,47,18.006V11.994z"/>
	<path d="M47,30.994C47,29.341,45.659,28,44.006,28H3.994C2.341,28,1,29.341,1,30.994v6.012C1,38.659,2.341,40,3.994,40h40.012
		C45.659,40,47,38.659,47,37.006V30.994z"/>
</g>
</svg>
