<?xml version="1.0" encoding="utf-8"?>
<!-- Generator: Adobe Illustrator 16.0.0, SVG Export Plug-In . SVG Version: 6.00 Build 0)  -->
<!DOCTYPE svg PUBLIC "-//W3C//DTD SVG 1.1//EN" "http://www.w3.org/Graphics/SVG/1.1/DTD/svg11.dtd">
<svg version="1.1" id="Layer_1" xmlns="http://www.w3.org/2000/svg" xmlns:xlink="http://www.w3.org/1999/xlink" x="0px" y="0px"
	 width="48px" height="48px" viewBox="0 0 48 48" enable-background="new 0 0 48 48" xml:space="preserve">
<path d="M24.264,1.659c-0.006,0-0.014,0.001-0.02,0.001c-0.007,0-0.013-0.001-0.02-0.001c-12.5,0-22.635,10.135-22.635,22.637
	c0,12.5,10.135,22.635,22.635,22.635c0.007,0,0.013,0,0.02,0c0.006,0,0.014,0,0.02,0c12.5,0,22.636-10.135,22.636-22.635
	C46.9,11.794,36.765,1.659,24.264,1.659z M24.264,40.45c-0.006,0-0.014-0.001-0.02-0.001c-0.007,0-0.013,0.001-0.02,0.001
	c-2.046,0-3.705-1.658-3.705-3.705c0-2.045,1.659-3.703,3.705-3.703c0.007,0,0.013,0,0.02,0c0.006,0,0.014,0,0.02,0
	c2.046,0,3.705,1.658,3.705,3.703C27.969,38.792,26.311,40.45,24.264,40.45z M29.577,12.218c-0.242,3.697-1.931,14.692-1.931,14.692
	c0,1.854-1.519,3.356-3.373,3.356c-0.01,0-0.02,0-0.029,0c-0.009,0-0.02,0-0.029,0c-1.853,0-3.372-1.503-3.372-3.356
	c0,0-1.689-10.995-1.931-14.692c-0.121-1.852,1.297-5.289,5.303-5.289c0.01,0,0.02,0.001,0.029,0.001s0.019-0.001,0.029-0.001
	C28.279,6.929,29.698,10.366,29.577,12.218z"/>
</svg>
