<?xml version="1.0" encoding="utf-8"?>
<!-- Generator: Adobe Illustrator 16.0.0, SVG Export Plug-In . SVG Version: 6.00 Build 0)  -->
<!DOCTYPE svg PUBLIC "-//W3C//DTD SVG 1.1//EN" "http://www.w3.org/Graphics/SVG/1.1/DTD/svg11.dtd">
<svg version="1.1" id="Layer_1" xmlns="http://www.w3.org/2000/svg" xmlns:xlink="http://www.w3.org/1999/xlink" x="0px" y="0px"
	 width="48px" height="48px" viewBox="0 0 48 48" enable-background="new 0 0 48 48" xml:space="preserve">
<path d="M36.478,15.395c-2.555,0-10.137,0.014-10.137,0.014c0.324-1.835,1.108-3.118,2.844-3.873
	c1.145-0.498,1.672-1.832,1.174-2.977c-0.499-1.148-1.835-1.673-2.978-1.175c-3.898,1.694-5.213,4.823-5.614,8.03
	c0,0-8.012,0.017-10.814,0.017C5.354,15.432,1,20.614,1,26.229c0,5.963,4.852,10.808,10.813,10.808c4.183,0,7.655-1.885,9.449-5.067
	h5.363c1.815,3.251,5.321,5.067,9.479,5.067c5.979,0,10.814-4.761,10.814-10.768C46.919,20.505,42.265,15.395,36.478,15.395z
	 M11.71,30.365c-2.507,0-4.539-2.033-4.539-4.54s2.032-4.539,4.539-4.539s4.539,2.032,4.539,4.539S14.217,30.365,11.71,30.365z
	 M39.731,26.708c0.707,0.708,0.707,1.854,0,2.561c-0.354,0.354-0.818,0.53-1.28,0.53c-0.464,0-0.927-0.176-1.281-0.53l-0.883-0.883
	l-0.885,0.883c-0.354,0.354-0.816,0.53-1.279,0.53c-0.464,0-0.926-0.176-1.28-0.53c-0.706-0.707-0.706-1.853,0-2.561l0.884-0.883
	l-0.884-0.883c-0.706-0.707-0.706-1.853,0-2.56c0.707-0.708,1.854-0.708,2.56,0l0.885,0.883l0.883-0.883
	c0.709-0.708,1.853-0.708,2.562,0c0.707,0.707,0.707,1.853,0,2.56l-0.884,0.883L39.731,26.708z"/>
</svg>
