<?xml version="1.0" encoding="utf-8"?>
<!-- Generator: Adobe Illustrator 16.0.0, SVG Export Plug-In . SVG Version: 6.00 Build 0)  -->
<!DOCTYPE svg PUBLIC "-//W3C//DTD SVG 1.1//EN" "http://www.w3.org/Graphics/SVG/1.1/DTD/svg11.dtd">
<svg version="1.1" id="Layer_1" xmlns="http://www.w3.org/2000/svg" xmlns:xlink="http://www.w3.org/1999/xlink" x="0px" y="0px"
	 width="48px" height="48px" viewBox="0 0 48 48" enable-background="new 0 0 48 48" xml:space="preserve">
<path d="M13.782,1C9.755,1,6.49,4.265,6.49,8.291v31.418C6.49,43.735,9.755,47,13.782,47h20.374c4.027,0,7.292-3.265,7.292-7.291
	V8.291C41.447,4.265,38.182,1,34.155,1H13.782z M30.48,16.052c0,1.109-0.898,2.008-2.008,2.008h-9.007
	c-1.109,0-2.007-0.898-2.007-2.008V7.045c0-1.109,0.898-2.009,2.007-2.009h9.007c1.109,0,2.008,0.899,2.008,2.009V16.052z
	 M33.063,39.766h-18.19c-1.38,0-2.5-1.134-2.5-2.514c0-1.382,1.119-2.514,2.5-2.514h18.19c1.38,0,2.5,1.132,2.5,2.514
	C35.563,38.632,34.444,39.766,33.063,39.766z M33.063,31.769h-18.19c-1.38,0-2.5-1.133-2.5-2.513c0-1.382,1.119-2.514,2.5-2.514
	h18.19c1.38,0,2.5,1.132,2.5,2.514C35.563,30.636,34.444,31.769,33.063,31.769z"/>
</svg>
