<?xml version="1.0" encoding="utf-8"?>
<!-- Generator: Adobe Illustrator 16.0.0, SVG Export Plug-In . SVG Version: 6.00 Build 0)  -->
<!DOCTYPE svg PUBLIC "-//W3C//DTD SVG 1.1//EN" "http://www.w3.org/Graphics/SVG/1.1/DTD/svg11.dtd">
<svg version="1.1" id="Layer_1" xmlns="http://www.w3.org/2000/svg" xmlns:xlink="http://www.w3.org/1999/xlink" x="0px" y="0px"
	 width="48px" height="48px" viewBox="0 0 48 48" enable-background="new 0 0 48 48" xml:space="preserve">
<path d="M23.909,1.056C11.258,1.056,1,11.313,1,23.965s10.258,22.909,22.909,22.909s22.909-10.257,22.909-22.909
	S36.561,1.056,23.909,1.056z M27.411,36.473c0,1.921-1.573,3.477-3.492,3.477c-1.92,0-3.492-1.556-3.492-3.477V21.257
	c0-1.92,1.572-3.477,3.492-3.477c1.919,0,3.492,1.556,3.492,3.477V36.473z M23.909,14.907c-2.119,0-3.837-1.718-3.837-3.836
	c0-2.12,1.718-3.836,3.837-3.836s3.837,1.716,3.837,3.836C27.746,13.189,26.028,14.907,23.909,14.907z"/>
</svg>
