<?xml version="1.0" encoding="utf-8"?>
<!-- Generator: Adobe Illustrator 16.0.0, SVG Export Plug-In . SVG Version: 6.00 Build 0)  -->
<!DOCTYPE svg PUBLIC "-//W3C//DTD SVG 1.1//EN" "http://www.w3.org/Graphics/SVG/1.1/DTD/svg11.dtd">
<svg version="1.1" id="Layer_1" xmlns="http://www.w3.org/2000/svg" xmlns:xlink="http://www.w3.org/1999/xlink" x="0px" y="0px"
	 width="48px" height="48px" viewBox="0 0 48 48" enable-background="new 0 0 48 48" xml:space="preserve">
<path d="M39.895,14.782l-1.356-1.295v-1.887c0-4.55-3.721-8.271-8.27-8.271h-2.39l-1.163-1.105
	c-0.763-0.727-1.747-1.084-2.729-1.074c-0.982-0.01-1.966,0.348-2.729,1.074l-1.163,1.105h-2.39c-4.549,0-8.244,3.722-8.244,8.271
	v1.887l-1.356,1.295c-3.014,0-5.461,2.443-5.461,5.456v20.719c0,3.013,2.428,5.502,5.442,5.502h31.802
	c3.014,0,5.468-2.489,5.468-5.502V20.238C45.356,17.226,42.909,14.782,39.895,14.782z M9.461,23.223l-0.559-0.562
	c-0.724-0.731-0.711-1.918,0.022-2.642c0.16-0.157,0.328-0.281,0.537-0.369V23.223z M33.6,28.218l-6.766,6.852
	c-0.754,0.765-1.773,1.321-2.843,1.321s-2.083-0.557-2.837-1.321L14.4,28.218V11.601c0-1.832,1.474-3.332,3.305-3.332h12.564
	c1.831,0,3.331,1.5,3.331,3.332V28.218z M39.084,22.661l-0.546,0.562V19.65c0.208,0.088,0.37,0.212,0.53,0.369
	C39.802,20.743,39.808,21.93,39.084,22.661z"/>
</svg>
