<?xml version="1.0" encoding="utf-8"?>
<!-- Generator: Adobe Illustrator 16.0.0, SVG Export Plug-In . SVG Version: 6.00 Build 0)  -->
<!DOCTYPE svg PUBLIC "-//W3C//DTD SVG 1.1//EN" "http://www.w3.org/Graphics/SVG/1.1/DTD/svg11.dtd">
<svg version="1.1" id="Layer_1" xmlns="http://www.w3.org/2000/svg" xmlns:xlink="http://www.w3.org/1999/xlink" x="0px" y="0px"
	 width="48px" height="48px" viewBox="0 0 48 48" enable-background="new 0 0 48 48" xml:space="preserve">
<path d="M44.881,37.322l-11.401-11.37c1.197-2.351,1.844-4.962,1.844-7.676c0-4.528-1.764-8.785-4.965-11.986
	C27.157,3.088,22.9,1.325,18.371,1.325c-4.527,0-8.786,1.763-11.986,4.965c-3.202,3.202-4.966,7.459-4.966,11.987
	s1.764,8.785,4.966,11.986c3.201,3.202,7.459,4.965,11.986,4.965c2.714,0,5.325-0.646,7.675-1.842l11.371,11.402
	c1.03,1.03,2.382,1.546,3.732,1.546s2.702-0.516,3.732-1.546C46.943,42.726,46.943,39.384,44.881,37.322z M10.863,25.784
	c-2.005-2.006-3.109-4.671-3.109-7.507s1.104-5.502,3.11-7.508c2.005-2.005,4.671-3.11,7.507-3.11s5.502,1.104,7.508,3.11
	c2.005,2.005,3.11,4.671,3.11,7.507s-1.105,5.502-3.11,7.508c-2.006,2.005-4.673,3.109-7.508,3.109
	C15.535,28.894,12.869,27.79,10.863,25.784z"/>
</svg>
