<?xml version="1.0" encoding="utf-8"?>
<!-- Generator: Adobe Illustrator 16.0.0, SVG Export Plug-In . SVG Version: 6.00 Build 0)  -->
<!DOCTYPE svg PUBLIC "-//W3C//DTD SVG 1.1//EN" "http://www.w3.org/Graphics/SVG/1.1/DTD/svg11.dtd">
<svg version="1.1" id="Layer_1" xmlns="http://www.w3.org/2000/svg" xmlns:xlink="http://www.w3.org/1999/xlink" x="0px" y="0px"
	 width="48px" height="48px" viewBox="0 0 48 48" enable-background="new 0 0 48 48" xml:space="preserve">
<g>
	<path d="M17.992,1.115H6.378C3.408,1.115,1,3.523,1,6.493v11.614c0,2.97,2.408,5.378,5.378,5.378h11.614
		c2.97,0,5.378-2.408,5.378-5.378V6.493C23.371,3.523,20.962,1.115,17.992,1.115z M16.475,14.229H7.909
		c-1.098,0-1.988-0.896-1.988-1.993s0.89-1.993,1.988-1.993h8.566c1.098,0,1.988,0.895,1.988,1.993S17.573,14.229,16.475,14.229z"/>
	<path d="M41.649,1.115H30.035c-2.97,0-5.378,2.408-5.378,5.378v11.614c0,2.97,2.408,5.378,5.378,5.378h11.614
		c2.97,0,5.378-2.408,5.378-5.378V6.493C47.027,3.523,44.619,1.115,41.649,1.115z M41.187,14.229h-3.416v3.453
		c0,1.098-0.895,1.988-1.993,1.988c-1.097,0-1.993-0.89-1.993-1.988v-3.453h-3.441c-1.097,0-1.987-0.896-1.987-1.993
		s0.89-1.993,1.987-1.993h3.441V6.839c0-1.098,0.896-1.987,1.993-1.987c1.098,0,1.993,0.89,1.993,1.987v3.404h3.416
		c1.097,0,1.987,0.895,1.987,1.993S42.284,14.229,41.187,14.229z"/>
	<path d="M17.8,24.771H6.442c-2.935,0-5.314,2.379-5.314,5.313v11.358c0,2.935,2.379,5.313,5.314,5.313H17.8
		c2.935,0,5.314-2.379,5.314-5.313V30.085C23.114,27.15,20.735,24.771,17.8,24.771z M17.324,38.228c0.777,0.776,0.777,2.035,0,2.811
		c-0.387,0.388-0.896,0.583-1.405,0.583c-0.509,0-1.018-0.194-1.405-0.583l-2.393-2.393l-2.394,2.394
		c-0.388,0.388-0.896,0.582-1.405,0.582s-1.018-0.194-1.405-0.582c-0.777-0.776-0.777-2.035,0-2.811l2.393-2.393l-2.393-2.394
		c-0.777-0.776-0.777-2.035,0-2.811c0.775-0.776,2.035-0.776,2.81,0l2.394,2.393l2.393-2.393c0.775-0.776,2.035-0.776,2.81,0
		c0.777,0.776,0.777,2.035,0,2.811l-2.393,2.393L17.324,38.228z"/>
	<path d="M41.733,24.9H30.336c-2.924,0-5.294,2.371-5.294,5.294v11.396c0,2.924,2.371,5.294,5.294,5.294h11.396
		c2.924,0,5.294-2.371,5.294-5.294V30.194C47.027,27.271,44.657,24.9,41.733,24.9z M36.024,42.973c-1.729,0-3.131-1.401-3.131-3.131
		c0-1.729,1.401-3.13,3.131-3.13c1.729,0,3.13,1.401,3.13,3.13C39.154,41.571,37.753,42.973,36.024,42.973z M36.024,34.959
		c-1.729,0-3.131-1.401-3.131-3.13c0-1.73,1.401-3.131,3.131-3.131c1.729,0,3.13,1.401,3.13,3.131
		C39.154,33.558,37.753,34.959,36.024,34.959z"/>
</g>
</svg>
