<?xml version="1.0" encoding="utf-8"?>
<!-- Generator: Adobe Illustrator 16.0.0, SVG Export Plug-In . SVG Version: 6.00 Build 0)  -->
<!DOCTYPE svg PUBLIC "-//W3C//DTD SVG 1.1//EN" "http://www.w3.org/Graphics/SVG/1.1/DTD/svg11.dtd">
<svg version="1.1" id="Layer_1" xmlns="http://www.w3.org/2000/svg" xmlns:xlink="http://www.w3.org/1999/xlink" x="0px" y="0px"
	 width="48px" height="48px" viewBox="0 0 48 48" enable-background="new 0 0 48 48" xml:space="preserve">
<g>
	<path d="M40.556,2.192H13.083c-3.401,0-6.166,2.824-6.166,6.226v0.609H6.373c-2.776,0-5.026,2.271-5.026,5.047
		c0,2.776,2.25,5.047,5.026,5.047h0.544v9.727H6.373c-2.776,0-5.026,2.271-5.026,5.048c0,2.775,2.25,5.047,5.026,5.047h0.544v0.643
		c0,3.4,2.765,6.192,6.166,6.192h27.464c3.401,0,6.17-2.792,6.17-6.192V8.41C46.717,5.014,43.952,2.192,40.556,2.192z
		 M40.093,37.316c0,1.305-1.059,2.362-2.363,2.362H16.956c-1.306,0-2.363-1.058-2.363-2.362V10.863c0-1.305,1.058-2.362,2.363-2.362
		h20.773c1.305,0,2.363,1.058,2.363,2.362V37.316z"/>
	<path d="M33.076,12.654H21.753c-1.552,0-2.796,1.259-2.796,2.812v0.057c0,1.553,1.244,2.811,2.796,2.811h11.323
		c1.553,0,2.811-1.258,2.811-2.811v-0.057C35.887,13.913,34.629,12.654,33.076,12.654z"/>
	<path d="M33.076,21.066H21.753c-1.552,0-2.796,1.263-2.796,2.815v0.057c0,1.553,1.244,2.807,2.796,2.807h11.323
		c1.553,0,2.811-1.254,2.811-2.807v-0.057C35.887,22.329,34.629,21.066,33.076,21.066z"/>
	<path d="M33.076,29.479H21.753c-1.552,0-2.796,1.265-2.796,2.817v0.057c0,1.553,1.244,2.804,2.796,2.804h11.323
		c1.553,0,2.811-1.251,2.811-2.804v-0.057C35.887,30.744,34.629,29.479,33.076,29.479z"/>
</g>
</svg>
