<?xml version="1.0" encoding="utf-8"?>
<!-- Generator: Adobe Illustrator 16.0.0, SVG Export Plug-In . SVG Version: 6.00 Build 0)  -->
<!DOCTYPE svg PUBLIC "-//W3C//DTD SVG 1.1//EN" "http://www.w3.org/Graphics/SVG/1.1/DTD/svg11.dtd">
<svg version="1.1" id="Layer_1" xmlns="http://www.w3.org/2000/svg" xmlns:xlink="http://www.w3.org/1999/xlink" x="0px" y="0px"
	 width="48px" height="48px" viewBox="0 0 48 48" enable-background="new 0 0 48 48" xml:space="preserve">
<g>
	<path d="M39.551,9.006H23.245V8.479c0-2.301-1.867-4.194-4.167-4.194h-6c-2.301,0-4.188,1.894-4.188,4.194v0.526H8.524
		C4.363,9.006,1,12.405,1,16.566v17.899c0,4.161,3.363,7.52,7.524,7.52h31.026c4.161,0,7.556-3.358,7.556-7.52V16.566
		C47.106,12.405,43.712,9.006,39.551,9.006z M24.632,37.95c-6.405,0-11.615-5.211-11.615-11.616c0-6.404,5.21-11.615,11.615-11.615
		c6.404,0,11.615,5.211,11.615,11.615C36.247,32.739,31.036,37.95,24.632,37.95z"/>
	<path d="M24.632,19.688c-3.665,0-6.646,2.981-6.646,6.646c0,3.666,2.981,6.647,6.646,6.647c3.664,0,6.646-2.981,6.646-6.647
		C31.277,22.669,28.296,19.688,24.632,19.688z"/>
</g>
</svg>
