<?xml version="1.0" encoding="utf-8"?>
<!-- Generator: Adobe Illustrator 16.0.0, SVG Export Plug-In . SVG Version: 6.00 Build 0)  -->
<!DOCTYPE svg PUBLIC "-//W3C//DTD SVG 1.1//EN" "http://www.w3.org/Graphics/SVG/1.1/DTD/svg11.dtd">
<svg version="1.1" id="Layer_1" xmlns="http://www.w3.org/2000/svg" xmlns:xlink="http://www.w3.org/1999/xlink" x="0px" y="0px"
	 width="48px" height="48px" viewBox="0 0 48 48" enable-background="new 0 0 48 48" xml:space="preserve">
<g>
	<path d="M19.482,16.182c-1.6,0-2.909,1.297-2.909,2.897v3.296c0,1.6,1.309,2.897,2.909,2.897c1.6,0,2.91-1.297,2.91-2.897v-3.296
		C22.392,17.479,21.082,16.182,19.482,16.182z"/>
	<path d="M28.66,12.888c-1.601,0-2.866,1.297-2.866,2.896v6.59c0,1.6,1.265,2.897,2.866,2.897c1.599,0,2.865-1.297,2.865-2.897
		v-6.59C31.525,14.186,30.259,12.888,28.66,12.888z"/>
	<path d="M34.685,1.252H13.392c-5.014,0-9.087,4.074-9.087,9.088v17.557c0,3.964,2.543,7.334,6.084,8.573l-1.9,5.606
		c-0.686,2.022,0.396,4.214,2.416,4.899c0.411,0.141,0.831,0.207,1.243,0.207c1.609,0,3.111-1.014,3.657-2.622l2.573-7.582h11.321
		l2.572,7.582c0.546,1.608,2.048,2.622,3.658,2.622c0.412,0,0.83-0.066,1.242-0.207c2.02-0.685,3.101-2.877,2.416-4.899
		l-1.889-5.606c3.541-1.239,6.095-4.609,6.095-8.573V10.341C43.792,5.327,39.7,1.252,34.685,1.252z M37.972,27.949
		c0,1.815-1.518,3.299-3.333,3.299H13.438c-1.815,0-3.313-1.483-3.313-3.299V10.387c0-1.815,1.498-3.314,3.313-3.314h21.201
		c1.815,0,3.333,1.499,3.333,3.314V27.949z"/>
</g>
</svg>
