<?xml version="1.0" encoding="utf-8"?>
<!-- Generator: Adobe Illustrator 16.0.0, SVG Export Plug-In . SVG Version: 6.00 Build 0)  -->
<!DOCTYPE svg PUBLIC "-//W3C//DTD SVG 1.1//EN" "http://www.w3.org/Graphics/SVG/1.1/DTD/svg11.dtd">
<svg version="1.1" id="Layer_1" xmlns="http://www.w3.org/2000/svg" xmlns:xlink="http://www.w3.org/1999/xlink" x="0px" y="0px"
	 width="48px" height="48px" viewBox="0 0 48 48" enable-background="new 0 0 48 48" xml:space="preserve">
<path d="M41.831,7.923c0-4.1-3.323-7.423-7.422-7.423H13.689c-4.099,0-7.422,3.323-7.422,7.423v32.013
	c0,4.1,3.323,7.423,7.422,7.423h20.719c4.099,0,7.422-3.323,7.422-7.423V7.923z M24.036,5.633c1.702,0,3.082,1.381,3.082,3.084
	c0,1.702-1.38,3.084-3.082,3.084c-1.704,0-3.083-1.382-3.083-3.084C20.952,7.014,22.332,5.633,24.036,5.633z M33.464,41.965H14.606
	c-1.406,0-2.545-1.144-2.545-2.55s1.14-2.55,2.545-2.55h18.858c1.405,0,2.544,1.144,2.544,2.55S34.87,41.965,33.464,41.965z
	 M33.464,33.804H14.606c-1.406,0-2.545-1.146-2.545-2.55c0-1.407,1.14-2.552,2.545-2.552h18.858c1.405,0,2.544,1.145,2.544,2.552
	C36.009,32.658,34.87,33.804,33.464,33.804z M33.464,25.643H14.606c-1.406,0-2.545-1.109-2.545-2.515
	c0-1.406,1.14-2.516,2.545-2.516h18.858c1.405,0,2.544,1.109,2.544,2.516C36.009,24.533,34.87,25.643,33.464,25.643z"/>
</svg>
