<?xml version="1.0" encoding="utf-8"?>
<!-- Generator: Adobe Illustrator 16.0.0, SVG Export Plug-In . SVG Version: 6.00 Build 0)  -->
<!DOCTYPE svg PUBLIC "-//W3C//DTD SVG 1.1//EN" "http://www.w3.org/Graphics/SVG/1.1/DTD/svg11.dtd">
<svg version="1.1" id="Layer_1" xmlns="http://www.w3.org/2000/svg" xmlns:xlink="http://www.w3.org/1999/xlink" x="0px" y="0px"
	 width="48px" height="48px" viewBox="0 0 48 48" enable-background="new 0 0 48 48" xml:space="preserve">
<path d="M24.105,1.721c-12.232,0-22.15,9.917-22.15,22.151s9.918,22.151,22.15,22.151c12.233,0,22.151-9.917,22.151-22.151
	S36.339,1.721,24.105,1.721z M24.018,36.515c-1.649,0-2.771-1.214-2.771-2.833c0-1.65,1.151-2.833,2.771-2.833
	c1.681,0,2.771,1.183,2.802,2.833C26.819,35.301,25.698,36.515,24.018,36.515z M28.438,22.967c-1.395,1.544-1.929,3.014-1.929,4.708
	v0.119c0,0.813-0.659,1.473-1.474,1.473H22.96c-0.803,0-1.457-0.643-1.473-1.445l-0.01-0.511c-0.113-1.921,0.527-3.849,2.222-5.883
	c1.205-1.431,2.185-2.621,2.185-3.902c0-1.318-0.865-2.176-2.749-2.251c-0.742,0-1.576,0.163-2.336,0.436
	c-0.38,0.137-0.795,0.113-1.155-0.065c-0.359-0.179-0.631-0.496-0.752-0.88L18.5,13.513c-0.229-0.733,0.144-1.517,0.856-1.804
	c1.327-0.535,3.079-0.947,5.059-0.947c4.972,0,7.229,2.75,7.229,5.877C31.645,19.501,29.871,21.385,28.438,22.967z"/>
</svg>
