<?xml version="1.0" encoding="utf-8"?>
<!-- Generator: Adobe Illustrator 16.0.0, SVG Export Plug-In . SVG Version: 6.00 Build 0)  -->
<!DOCTYPE svg PUBLIC "-//W3C//DTD SVG 1.1//EN" "http://www.w3.org/Graphics/SVG/1.1/DTD/svg11.dtd">
<svg version="1.1" id="Layer_1" xmlns="http://www.w3.org/2000/svg" xmlns:xlink="http://www.w3.org/1999/xlink" x="0px" y="0px"
	 width="48px" height="48px" viewBox="0 0 48 48" enable-background="new 0 0 48 48" xml:space="preserve">
<g>
	<path d="M40.445,14.175v-1.399c0-4.101-3.335-7.42-7.436-7.42H14.971c-4.101,0-7.416,3.319-7.416,7.42v1.399
		C3.817,14.782,1,17.986,1,21.849v10.587C1,36.731,4.511,40.2,8.807,40.2h30.367c4.296,0,7.769-3.469,7.769-7.765V21.849
		C46.943,17.986,44.125,14.782,40.445,14.175z M12.5,12.775c0-1.352,1.119-2.475,2.471-2.475H33.01c1.352,0,2.433,1.123,2.433,2.475
		v1.32H12.5V12.775z M10.789,34.721c-3.501,0-6.339-2.838-6.339-6.339s2.838-6.339,6.339-6.339s6.339,2.838,6.339,6.339
		S14.29,34.721,10.789,34.721z M28.485,30.563c0,1.227-0.994,2.221-2.22,2.221h-4.53c-1.226,0-2.22-0.994-2.22-2.221v-3.552
		c0-1.227,0.994-2.221,2.22-2.221h4.53c1.226,0,2.22,0.994,2.22,2.221V30.563z M37.524,34.721c-3.501,0-6.339-2.838-6.339-6.339
		s2.838-6.339,6.339-6.339s6.339,2.838,6.339,6.339S41.025,34.721,37.524,34.721z"/>
	<path d="M37.524,25.034c-1.846,0-3.348,1.502-3.348,3.348s1.502,3.348,3.348,3.348c1.846,0,3.348-1.502,3.348-3.348
		S39.371,25.034,37.524,25.034z"/>
	<path d="M10.789,25.034c-1.846,0-3.348,1.502-3.348,3.348s1.502,3.348,3.348,3.348c1.846,0,3.348-1.502,3.348-3.348
		S12.635,25.034,10.789,25.034z"/>
</g>
</svg>
