<?xml version="1.0" encoding="utf-8"?>
<!-- Generator: Adobe Illustrator 16.0.0, SVG Export Plug-In . SVG Version: 6.00 Build 0)  -->
<!DOCTYPE svg PUBLIC "-//W3C//DTD SVG 1.1//EN" "http://www.w3.org/Graphics/SVG/1.1/DTD/svg11.dtd">
<svg version="1.1" id="Layer_1" xmlns="http://www.w3.org/2000/svg" xmlns:xlink="http://www.w3.org/1999/xlink" x="0px" y="0px"
	 width="48px" height="48px" viewBox="0 0 48 48" enable-background="new 0 0 48 48" xml:space="preserve">
<path d="M37.752,13.627L14.677,13.6V4.907c0-1.315-1.037-2.384-2.354-2.384c-1.317,0-2.354,1.068-2.354,2.384V13.6H9.409
	c-4.451,0-8.041,3.637-8.041,8.088v14.995c0,4.451,3.59,8.077,8.041,8.077l28.343,0.025c4.449,0,8.041-3.626,8.041-8.076V21.713
	C45.793,17.262,42.201,13.627,37.752,13.627z M16.138,23.843c0-1.179,0.916-2.129,2.095-2.129h1.351c1.179,0,2.153,0.95,2.153,2.129
	v1.35c0,1.18-0.975,2.121-2.153,2.121h-1.351c-1.179,0-2.095-0.941-2.095-2.121V23.843z M8.672,23.843
	c0-1.179,0.996-2.129,2.176-2.129h1.35c1.18,0,2.155,0.95,2.155,2.129v1.35c0,1.18-0.976,2.121-2.155,2.121h-1.35
	c-1.18,0-2.176-0.941-2.176-2.121V23.843z M29.04,34.509c0,1.18-0.957,2.136-2.137,2.136H10.808c-1.18,0-2.136-0.956-2.136-2.136
	v-1.327c0-1.18,0.956-2.135,2.136-2.135h16.096c1.18,0,2.137,0.955,2.137,2.135V34.509z M38.452,34.362
	c0,1.261-1.022,2.285-2.285,2.285h-1.842c-1.261,0-2.283-1.024-2.283-2.285V29.18c0-1.03-0.835-1.866-1.866-1.866h-4.557
	c-1.159,0-2.098-0.94-2.098-2.098v-1.373c0-1.177,0.953-2.129,2.127-2.129h8.685c3.051,0,4.119,2.896,4.119,4.62V34.362z"/>
</svg>
