<?xml version="1.0" encoding="utf-8"?>
<!-- Generator: Adobe Illustrator 16.0.0, SVG Export Plug-In . SVG Version: 6.00 Build 0)  -->
<!DOCTYPE svg PUBLIC "-//W3C//DTD SVG 1.1//EN" "http://www.w3.org/Graphics/SVG/1.1/DTD/svg11.dtd">
<svg version="1.1" id="Layer_1" xmlns="http://www.w3.org/2000/svg" xmlns:xlink="http://www.w3.org/1999/xlink" x="0px" y="0px"
	 width="48px" height="48px" viewBox="0 0 48 48" enable-background="new 0 0 48 48" xml:space="preserve">
<g>
	<path d="M45.35,35.52H2.65c-0.75,0-1.357,0.591-1.357,1.341c0,5.452,4.42,9.855,9.873,9.855h25.669
		c5.453,0,9.873-4.403,9.873-9.855C46.707,36.111,46.1,35.52,45.35,35.52z"/>
	<path d="M22.499,31.921h13.009c0.588,0,1.134-0.309,1.446-0.807c0.313-0.497,0.347-1.124,0.091-1.653L24.036,2.514
		c-0.346-0.717-1.137-1.101-1.914-0.923c-0.776,0.178-1.322,0.867-1.322,1.664v26.946C20.801,31.144,21.556,31.921,22.499,31.921z"
		/>
</g>
</svg>
