<?xml version="1.0" encoding="utf-8"?>
<!-- Generator: Adobe Illustrator 16.0.0, SVG Export Plug-In . SVG Version: 6.00 Build 0)  -->
<!DOCTYPE svg PUBLIC "-//W3C//DTD SVG 1.1//EN" "http://www.w3.org/Graphics/SVG/1.1/DTD/svg11.dtd">
<svg version="1.1" id="Layer_1" xmlns="http://www.w3.org/2000/svg" xmlns:xlink="http://www.w3.org/1999/xlink" x="0px" y="0px"
	 width="48px" height="48px" viewBox="0 0 48 48" enable-background="new 0 0 48 48" xml:space="preserve">
<path d="M42.534,29.78h1.957c1.386,0,2.509-1.124,2.509-2.51V20.97c0-1.385-1.124-2.509-2.509-2.509H42.54v0.006
	c-0.391-1.207-0.852-2.364-1.436-3.458l1.38-1.381c0.979-0.98,0.979-2.569,0-3.549L38.04,5.637c-0.979-0.979-2.567-0.979-3.547,0
	l-1.381,1.38c-1.094-0.584-2.251-1.045-3.457-1.436h0.005V3.63c0-1.386-1.123-2.51-2.509-2.51H20.85
	c-1.386,0-2.509,1.124-2.509,2.51v1.955l0.014-0.001c-1.207,0.367-2.363,0.85-3.458,1.435l-1.381-1.381
	c-0.98-0.979-2.568-0.979-3.548,0l-4.443,4.443c-0.979,0.979-0.98,2.566-0.002,3.546L6.9,15.009
	c-0.584,1.094-1.049,2.251-1.44,3.457v-0.005H3.509C2.124,18.461,1,19.585,1,20.97v6.301c0,1.386,1.124,2.51,2.509,2.51h1.964
	l-0.006-0.015c0.367,1.207,0.853,2.363,1.436,3.457l-1.38,1.381c-0.98,0.98-0.979,2.568,0,3.548l4.443,4.442
	c0.979,0.979,2.568,0.979,3.548,0l1.381-1.381c1.094,0.584,2.251,1.072,3.458,1.439l-0.014-0.006v1.965
	c0,1.386,1.123,2.509,2.509,2.509h6.301c1.386,0,2.509-1.123,2.509-2.509V42.66h-0.005c1.207-0.391,2.363-0.856,3.457-1.44
	l1.38,1.379c0.98,0.979,2.568,0.979,3.547-0.001l4.443-4.444c0.98-0.979,0.98-2.567,0-3.548l-1.382-1.382
	c0.584-1.094,1.068-2.251,1.435-3.457L42.534,29.78z M24.021,37.834c-7.577,0.009-13.743-6.157-13.734-13.734
	c0.009-7.539,6.163-13.693,13.702-13.702c7.577-0.009,13.743,6.157,13.734,13.734C37.713,31.671,31.56,37.825,24.021,37.834z"/>
</svg>
