<?xml version="1.0" encoding="utf-8"?>
<!-- Generator: Adobe Illustrator 16.0.0, SVG Export Plug-In . SVG Version: 6.00 Build 0)  -->
<!DOCTYPE svg PUBLIC "-//W3C//DTD SVG 1.1//EN" "http://www.w3.org/Graphics/SVG/1.1/DTD/svg11.dtd">
<svg version="1.1" id="Layer_1" xmlns="http://www.w3.org/2000/svg" xmlns:xlink="http://www.w3.org/1999/xlink" x="0px" y="0px"
	 width="48px" height="48px" viewBox="0 0 48 48" enable-background="new 0 0 48 48" xml:space="preserve">
<g>
	<path d="M42.759,6.352c0-2.891-2.343-5.234-5.234-5.234H13.931c-2.891,0-5.234,2.343-5.234,5.234v35.609
		c0,2.891,2.343,5.234,5.234,5.234h23.594c2.891,0,5.234-2.343,5.234-5.234V6.352z M29.811,40.85c0,0.541-0.439,0.979-0.98,0.979
		h-6.089c-0.541,0-0.98-0.438-0.98-0.979v-1.073c0-0.542,0.439-0.98,0.98-0.98h6.089c0.541,0,0.98,0.438,0.98,0.98V40.85z
		 M37.043,32.274c0,1.089-0.883,1.973-1.973,1.973H16.386c-1.089,0-1.973-0.883-1.973-1.973V9.39c0-1.089,0.883-1.973,1.973-1.973
		h18.685c1.09,0,1.973,0.883,1.973,1.973V32.274z"/>
</g>
</svg>
