<?xml version="1.0" encoding="utf-8"?>
<!-- Generator: Adobe Illustrator 16.0.0, SVG Export Plug-In . SVG Version: 6.00 Build 0)  -->
<!DOCTYPE svg PUBLIC "-//W3C//DTD SVG 1.1//EN" "http://www.w3.org/Graphics/SVG/1.1/DTD/svg11.dtd">
<svg version="1.1" id="Layer_1" xmlns="http://www.w3.org/2000/svg" xmlns:xlink="http://www.w3.org/1999/xlink" x="0px" y="0px"
	 width="48px" height="48px" viewBox="0 0 48 48" enable-background="new 0 0 48 48" xml:space="preserve">
<g>
	<path d="M36.702,26.412h-0.024V13.266h0.307c1.18,0,2.136-0.929,2.136-2.108V3.508c0-1.18-0.957-2.096-2.136-2.096h-5.017
		c-1.18,0-2.113,0.916-2.113,2.096v7.649c0,1.179,0.933,2.108,2.113,2.108h0.329v13.146h-0.045c-2.124,0-3.833,1.768-3.833,3.892
		v12.921c0,2.125,1.708,3.804,3.833,3.804h4.451c2.124,0,3.855-1.679,3.855-3.804V30.304C40.558,28.18,38.826,26.412,36.702,26.412z
		"/>
	<path d="M11.97,19.333v24.691c0,1.67,1.338,3.005,3.008,3.005h3.179c1.67,0,3.007-1.335,3.007-3.005v-24.69
		c3.448-1.702,5.871-5.275,5.871-9.408c0-3.444-1.959-6.493-4.382-8.399c-0.277-0.218-0.654-0.258-0.97-0.104
		c-0.318,0.155-0.519,0.476-0.519,0.829v5.102c0,1.63-1.32,2.896-2.952,2.896h-3.284c-1.632,0-2.958-1.265-2.958-2.896V2.249
		c0-0.354-0.199-0.675-0.517-0.83c-0.316-0.154-0.692-0.113-0.97,0.104C8.052,3.429,6.096,6.479,6.096,9.925
		C6.096,14.058,8.451,17.631,11.97,19.333z"/>
</g>
</svg>
