<?xml version="1.0" encoding="utf-8"?>
<!-- Generator: Adobe Illustrator 16.0.0, SVG Export Plug-In . SVG Version: 6.00 Build 0)  -->
<!DOCTYPE svg PUBLIC "-//W3C//DTD SVG 1.1//EN" "http://www.w3.org/Graphics/SVG/1.1/DTD/svg11.dtd">
<svg version="1.1" id="Layer_1" xmlns="http://www.w3.org/2000/svg" xmlns:xlink="http://www.w3.org/1999/xlink" x="0px" y="0px"
	 width="48px" height="48px" viewBox="0 0 48 48" enable-background="new 0 0 48 48" xml:space="preserve">
<g>
	<path d="M29.619,2.968L17.804,1.29c-0.58-0.082-1.151,0.192-1.449,0.696c-0.298,0.504-0.263,1.137,0.088,1.605l1.584,2.109
		L2.042,17.71c-0.457,0.343-0.758,0.854-0.838,1.419s0.067,1.14,0.41,1.596l4.382,5.833c0.714,0.951,2.064,1.142,3.015,0.428
		l15.985-12.01l1.583,2.109c0.352,0.468,0.95,0.678,1.517,0.532c0.567-0.145,0.99-0.618,1.072-1.197l1.679-11.814
		c0.054-0.38-0.045-0.766-0.276-1.073C30.342,3.225,29.999,3.022,29.619,2.968z"/>
	<path d="M12.662,32.218c-0.483-0.241-1.059-0.188-1.49,0.137l-9.25,6.959c-0.519,0.383-0.836,0.99-0.836,1.634v3.91
		c0,1.122,0.936,2.032,2.058,2.032H11.7c0.968,0,1.748-0.785,1.748-1.752V33.491C13.448,32.952,13.145,32.459,12.662,32.218z"/>
	<path d="M29.177,20.14c-0.479-0.242-1.048-0.194-1.48,0.124l-9.335,6.886c-0.364,0.269-0.568,0.694-0.568,1.146v16.841
		c0,0.968,0.768,1.752,1.735,1.752h8.687c0.968,0,1.733-0.785,1.733-1.752V21.41C29.949,20.873,29.656,20.382,29.177,20.14z"/>
	<path d="M45.785,8.301c-0.685-0.346-1.512-0.276-2.128,0.18l-8.238,6.08c-0.603,0.446-0.971,1.151-0.971,1.901v28.675
		c0,0.968,0.802,1.752,1.77,1.752h8.639c1.122,0,2.058-0.91,2.058-2.032V10.115C46.915,9.348,46.47,8.646,45.785,8.301z"/>
</g>
</svg>
