<?xml version="1.0" encoding="utf-8"?>
<!-- Generator: Adobe Illustrator 16.0.0, SVG Export Plug-In . SVG Version: 6.00 Build 0)  -->
<!DOCTYPE svg PUBLIC "-//W3C//DTD SVG 1.1//EN" "http://www.w3.org/Graphics/SVG/1.1/DTD/svg11.dtd">
<svg version="1.1" id="Layer_1" xmlns="http://www.w3.org/2000/svg" xmlns:xlink="http://www.w3.org/1999/xlink" x="0px" y="0px"
	 width="48px" height="48px" viewBox="0 0 48 48" enable-background="new 0 0 48 48" xml:space="preserve">
<g>
	<path d="M34.496,24.223c0-5.813-4.712-10.523-10.524-10.523c-5.813,0-10.524,4.711-10.524,10.523s4.711,10.524,10.524,10.524
		C29.784,34.747,34.496,30.035,34.496,24.223z M18.549,24.223c0-2.99,2.433-5.423,5.423-5.423s5.423,2.433,5.423,5.423
		s-2.433,5.423-5.423,5.423S18.549,27.213,18.549,24.223z"/>
	<path d="M24.035,12.696c1.409,0,2.546-1.142,2.546-2.551V4.134c0-1.409-1.137-2.551-2.546-2.551c-1.409,0-2.546,1.142-2.546,2.551
		v6.012C21.489,11.555,22.626,12.696,24.035,12.696z"/>
	<path d="M23.911,35.967c-1.409,0-2.546,1.142-2.546,2.551v6.012c0,1.409,1.138,2.551,2.546,2.551s2.546-1.142,2.546-2.551v-6.012
		C26.458,37.108,25.32,35.967,23.911,35.967z"/>
	<path d="M34.051,16.899c0.653,0,1.306-0.249,1.803-0.747l4.251-4.25c0.997-0.996,0.997-2.61,0-3.607
		c-0.995-0.996-2.611-0.996-3.606,0l-4.251,4.251c-0.996,0.996-0.996,2.61,0,3.606C32.746,16.65,33.399,16.899,34.051,16.899z"/>
	<path d="M12.088,32.511l-4.251,4.251c-0.996,0.996-0.996,2.61,0,3.607c0.498,0.498,1.151,0.747,1.803,0.747
		c0.653,0,1.306-0.249,1.804-0.747l4.25-4.252c0.997-0.996,0.997-2.61,0-3.606C14.7,31.515,13.083,31.515,12.088,32.511z"/>
	<path d="M44.169,21.827h-6.012c-1.409,0-2.551,1.168-2.551,2.577c0,1.408,1.142,2.577,2.551,2.577h6.012
		c1.409,0,2.551-1.169,2.551-2.577C46.72,22.995,45.578,21.827,44.169,21.827z"/>
	<path d="M12.336,24.249c0-1.409-1.142-2.547-2.551-2.547H3.773c-1.409,0-2.551,1.138-2.551,2.547c0,1.408,1.142,2.546,2.551,2.546
		h6.012C11.194,26.795,12.336,25.657,12.336,24.249z"/>
	<path d="M35.757,32.608c-0.996-0.996-2.612-0.996-3.607,0c-0.996,0.996-0.996,2.61,0,3.606l4.251,4.251
		c0.498,0.499,1.15,0.748,1.803,0.748c0.652,0,1.306-0.249,1.803-0.748c0.996-0.996,0.996-2.609,0-3.606L35.757,32.608z"/>
	<path d="M12.186,16.058c0.498,0.498,1.15,0.746,1.803,0.746c0.652,0,1.306-0.25,1.803-0.748c0.996-0.997,0.996-2.611,0-3.607
		l-4.251-4.25c-0.995-0.997-2.611-0.997-3.606,0c-0.996,0.996-0.996,2.61,0,3.606L12.186,16.058z"/>
</g>
</svg>
