<?xml version="1.0" encoding="utf-8"?>
<!-- Generator: Adobe Illustrator 16.0.0, SVG Export Plug-In . SVG Version: 6.00 Build 0)  -->
<!DOCTYPE svg PUBLIC "-//W3C//DTD SVG 1.1//EN" "http://www.w3.org/Graphics/SVG/1.1/DTD/svg11.dtd">
<svg version="1.1" id="Layer_1" xmlns="http://www.w3.org/2000/svg" xmlns:xlink="http://www.w3.org/1999/xlink" x="0px" y="0px"
	 width="48px" height="48px" viewBox="0 0 48 48" enable-background="new 0 0 48 48" xml:space="preserve">
<path d="M37.335,9.874h-8.434C28.708,9.245,28.4,8.666,28,8.164l5.855-4.474c0.659-0.502,0.785-1.443,0.282-2.102
	c-0.502-0.658-1.443-0.782-2.102-0.282l-6.686,5.107c-0.418-0.114-0.857-0.178-1.312-0.183c-0.454,0.005-0.894,0.068-1.312,0.183
	l-6.686-5.107c-0.658-0.5-1.6-0.376-2.103,0.282c-0.502,0.658-0.376,1.6,0.282,2.102l5.856,4.474c-0.4,0.502-0.708,1.081-0.901,1.71
	h-8.434c-2.884,0-5.296,2.313-5.296,5.197v26.53c0,2.884,2.412,5.222,5.296,5.222h26.592c2.884,0,5.218-2.338,5.218-5.222v-26.53
	C42.553,12.188,40.219,9.874,37.335,9.874z M24.039,43.159c-1.205,0-2.183-0.977-2.183-2.183c0-1.205,0.978-2.183,2.183-2.183
	s2.183,0.978,2.183,2.183C26.222,42.183,25.244,43.159,24.039,43.159z M36.862,32.734c0,1.108-0.898,2.006-2.007,2.006H13.145
	c-1.108,0-2.007-0.897-2.007-2.006V17.493c0-1.108,0.898-2.007,2.007-2.007h21.711c1.108,0,2.007,0.898,2.007,2.007V32.734z"/>
</svg>
