<?xml version="1.0" encoding="utf-8"?>
<!-- Generator: Adobe Illustrator 16.0.0, SVG Export Plug-In . SVG Version: 6.00 Build 0)  -->
<!DOCTYPE svg PUBLIC "-//W3C//DTD SVG 1.1//EN" "http://www.w3.org/Graphics/SVG/1.1/DTD/svg11.dtd">
<svg version="1.1" id="Layer_1" xmlns="http://www.w3.org/2000/svg" xmlns:xlink="http://www.w3.org/1999/xlink" x="0px" y="0px"
	 width="48px" height="48px" viewBox="0 0 48 48" enable-background="new 0 0 48 48" xml:space="preserve">
<g>
	<path d="M15.325,32.321V18.975c0-2.141-1.713-3.877-3.854-3.877c-2.143,0-3.855,1.736-3.855,3.877v13.346
		c0,2.142,1.713,3.878,3.855,3.878C13.612,36.2,15.325,34.463,15.325,32.321z"/>
	<path d="M27.905,32.321V18.975c0-2.141-1.745-3.877-3.885-3.877c-2.143,0-3.885,1.736-3.885,3.877v13.346
		c0,2.142,1.742,3.878,3.885,3.878C26.16,36.2,27.905,34.463,27.905,32.321z"/>
	<path d="M40.548,32.321V18.975c0-2.141-1.773-3.877-3.915-3.877s-3.917,1.736-3.917,3.877v13.346c0,2.142,1.775,3.878,3.917,3.878
		S40.548,34.463,40.548,32.321z"/>
	<path d="M42.503,39.29H5.655c-2.141,0-3.876,1.775-3.876,3.916s1.735,3.916,3.876,3.916h36.848c2.142,0,3.879-1.775,3.879-3.916
		S44.645,39.29,42.503,39.29z"/>
	<path d="M45.684,9.455L25.557,1.169c-0.946-0.389-2.007-0.389-2.952,0L2.459,9.462C1.909,9.697,1.6,10.271,1.72,10.856
		c0.119,0.585,0.635,0.991,1.233,0.991h42.256c0.603,0,1.118-0.411,1.234-1C46.559,10.256,46.24,9.682,45.684,9.455z"/>
</g>
</svg>
