<?xml version="1.0" encoding="utf-8"?>
<!-- Generator: Adobe Illustrator 16.0.0, SVG Export Plug-In . SVG Version: 6.00 Build 0)  -->
<!DOCTYPE svg PUBLIC "-//W3C//DTD SVG 1.1//EN" "http://www.w3.org/Graphics/SVG/1.1/DTD/svg11.dtd">
<svg version="1.1" id="Layer_1" xmlns="http://www.w3.org/2000/svg" xmlns:xlink="http://www.w3.org/1999/xlink" x="0px" y="0px"
	 width="48px" height="48px" viewBox="0 0 48 48" enable-background="new 0 0 48 48" xml:space="preserve">
<g>
	<path d="M38.296,1.493H14.684c-4.819,0-8.71,3.865-8.71,8.685v2.883c1.686-1.655,3.812-2.827,6.204-3.32
		c0.213-1.195,1.251-2.094,2.506-2.094H39.23c1.202,0,2.176,0.974,2.176,2.176v1.213c0,1.201-0.974,2.175-2.176,2.175H27.643h-3.728
		l-8.614-0.017c-1.854,0-9.244,2.868-9.244,7.351h11.66c4.407,0,7.981,3.624,7.981,8.031v3.768c0,4.406-3.574,8.011-7.981,8.011
		H6.338c1.092,3.54,4.415,6.153,8.346,6.153h23.612c4.819,0,8.729-3.907,8.729-8.727V26.056l0,0v-4.153V10.178
		C47.025,5.358,43.115,1.493,38.296,1.493z"/>
	<path d="M21.989,32.271v-3.73c0-2.368-1.92-4.288-4.288-4.288H5.288C2.92,24.253,1,26.173,1,28.541v3.73
		c0,2.368,1.92,4.288,4.288,4.288h12.413C20.069,36.56,21.989,34.64,21.989,32.271z M7.53,32.833c-1.409,0-2.552-1.143-2.552-2.553
		c0-1.409,1.143-2.552,2.552-2.552s2.552,1.143,2.552,2.552C10.082,31.69,8.939,32.833,7.53,32.833z"/>
</g>
</svg>
